<?xml version="1.0" encoding="UTF-8" ?>
<!DOCTYPE svg PUBLIC "-//W3C//DTD SVG 1.1//EN" "http://www.w3.org/Graphics/SVG/1.1/DTD/svg11.dtd">
<svg width="836pt" height="1024pt" viewBox="0 0 836 1024" version="1.1" xmlns="http://www.w3.org/2000/svg">
<g id="#b41f26ff">
<path fill="#b41f26" opacity="1.00" d=" M 337.43 52.96 C 337.02 44.65 344.77 37.33 352.94 37.44 C 380.65 37.40 408.36 37.42 436.07 37.42 C 444.19 37.11 452.66 44.52 451.77 52.96 C 451.75 80.47 451.80 107.98 451.72 135.49 C 431.79 135.57 411.86 135.46 391.93 135.54 C 385.09 135.88 377.59 138.63 373.99 144.83 C 372.79 146.21 372.29 148.93 370.01 148.74 C 362.67 148.62 355.27 149.17 347.97 148.36 C 342.39 145.87 337.28 140.52 337.45 134.05 C 337.41 107.02 337.43 79.99 337.43 52.96 Z" />
<path fill="#b41f26" opacity="1.00" d=" M 261.90 131.22 C 264.95 123.66 272.77 118.35 280.94 118.45 C 296.86 118.43 312.77 118.45 328.68 118.47 C 328.65 125.21 328.87 131.95 329.79 138.63 C 332.17 147.83 340.65 155.12 350.03 156.38 C 356.84 156.77 363.67 156.37 370.49 156.58 C 370.62 176.38 370.47 196.19 370.52 216.00 C 370.64 220.71 369.86 225.73 372.13 230.08 C 375.19 236.92 382.37 242.04 389.97 241.74 C 393.92 241.80 397.86 241.70 401.81 241.76 C 400.46 250.88 390.81 257.02 382.02 256.70 C 348.34 256.67 314.66 256.70 280.98 256.70 C 270.11 257.01 259.89 247.02 260.46 236.06 C 260.49 205.04 260.48 174.02 260.46 143.00 C 260.51 139.05 260.03 134.87 261.90 131.22 Z" />
<path fill="#b41f26" opacity="1.00" d=" M 476.70 143.37 C 501.48 143.23 526.27 143.35 551.05 143.30 C 561.40 142.50 571.71 151.41 571.67 161.94 C 571.71 193.63 571.65 225.31 571.69 257.00 C 571.60 261.25 572.16 265.79 570.09 269.70 C 566.14 277.74 556.91 282.63 548.03 281.63 C 518.02 281.61 488.01 281.65 458.00 281.63 C 454.31 281.59 450.61 281.79 446.94 281.43 C 438.15 279.61 430.25 272.35 429.57 263.08 C 429.38 256.23 429.59 249.37 429.43 242.52 C 440.29 241.99 451.19 242.79 462.03 242.12 C 471.86 241.14 481.45 232.43 480.55 222.07 C 480.51 199.36 480.52 176.65 480.54 153.95 C 480.82 150.01 478.38 146.71 476.70 143.37 Z" />
<path fill="#b41f26" opacity="1.00" d=" M 497.27 326.58 C 498.51 318.14 499.64 309.65 501.69 301.36 C 538.07 301.29 574.46 301.33 610.85 301.32 C 610.89 309.87 608.89 318.22 607.26 326.56 C 596.13 326.77 585.01 326.62 573.89 326.62 C 572.12 326.55 570.41 327.01 568.73 327.46 C 566.81 339.95 563.99 352.28 562.24 364.80 C 559.21 382.40 556.34 400.02 553.16 417.59 C 542.16 417.81 531.15 417.70 520.15 417.66 C 521.64 404.68 524.60 391.93 526.50 379.01 C 528.56 364.99 531.67 351.15 533.74 337.13 C 534.52 333.69 534.71 330.17 534.61 326.66 C 522.16 326.60 509.71 326.74 497.27 326.58 Z" />
<path fill="#b41f26" opacity="1.00" d=" M 3.45 303.56 C 34.10 303.61 64.76 303.46 95.41 303.63 C 95.50 311.80 95.53 319.99 95.44 328.16 C 95.12 328.48 94.50 329.13 94.18 329.45 C 74.27 329.61 54.35 329.26 34.45 329.63 C 34.42 336.22 34.30 342.81 34.54 349.40 C 52.46 349.55 70.37 349.37 88.29 349.50 C 88.54 357.19 88.47 364.89 88.33 372.58 C 70.40 372.83 52.45 372.58 34.51 372.72 C 34.32 379.99 34.39 387.26 34.47 394.52 C 55.36 394.61 76.26 394.57 97.15 394.53 C 97.74 403.17 97.32 411.86 97.36 420.52 C 66.05 420.65 34.74 420.56 3.42 420.57 C 3.38 381.57 3.32 342.56 3.45 303.56 Z" />
</g>
<g id="#f6b4b6ff">
<path fill="#f6b4b6" opacity="1.00" d=" M 385.49 144.51 C 387.72 143.08 390.46 143.49 392.98 143.37 C 415.34 143.40 437.70 143.43 460.07 143.40 C 466.93 142.60 472.85 149.31 472.63 155.92 C 472.73 177.63 472.50 199.35 472.70 221.06 C 473.32 227.70 467.66 234.06 461.11 234.55 C 437.07 234.41 413.03 234.65 389.00 234.45 C 384.05 233.10 378.56 228.74 379.32 223.06 C 379.31 202.71 379.40 182.36 379.23 162.00 C 379.24 158.33 379.09 154.64 379.56 150.98 C 380.44 148.09 382.81 145.81 385.49 144.51 Z" />
</g>
<g id="#1f1c1eff">
<path fill="#1f1c1e" opacity="1.00" d=" M 818.65 318.81 C 821.35 317.40 824.41 317.41 827.38 317.33 C 829.30 321.97 828.04 327.12 828.39 332.00 C 828.77 339.46 827.56 346.84 826.74 354.23 C 825.14 372.79 822.57 391.26 820.82 409.80 C 820.81 413.97 825.44 414.56 828.46 415.81 C 828.40 418.28 828.38 420.75 828.38 423.23 C 821.57 426.30 811.35 424.76 808.81 416.79 C 807.48 408.33 809.21 399.80 809.85 391.36 C 811.60 377.37 813.52 363.40 814.76 349.35 C 816.12 339.18 816.56 328.87 818.65 318.81 Z" />
<path fill="#1f1c1e" opacity="1.00" d=" M 278.85 325.18 C 281.54 321.83 286.79 323.98 290.56 323.56 C 290.63 327.58 291.20 331.87 289.29 335.59 C 285.66 335.67 282.04 335.69 278.42 335.48 C 278.34 332.05 278.02 328.54 278.85 325.18 Z" />
<path fill="#1f1c1e" opacity="1.00" d=" M 681.91 335.24 C 684.27 330.53 690.99 330.89 694.66 333.83 C 694.52 339.34 692.95 344.73 693.42 350.26 C 698.21 350.30 703.01 350.24 707.80 350.41 C 708.03 353.82 707.76 358.13 703.96 359.46 C 700.12 359.87 696.25 359.63 692.40 359.70 C 691.67 361.77 691.08 363.89 690.80 366.08 C 689.74 378.76 687.90 391.36 686.55 404.01 C 686.50 406.93 685.88 410.47 688.33 412.66 C 691.83 416.17 697.33 413.99 701.71 414.22 C 702.06 418.17 701.00 422.85 696.58 423.93 C 690.04 425.35 681.98 425.15 677.09 419.91 C 673.04 415.54 673.07 409.17 673.98 403.64 C 675.43 389.01 677.45 374.44 679.22 359.84 C 676.03 359.69 672.84 359.62 669.65 359.60 C 667.99 356.74 668.10 352.94 670.79 350.75 C 673.87 349.92 677.08 349.71 680.25 349.32 C 680.92 344.64 681.29 339.92 681.91 335.24 Z" />
<path fill="#1f1c1e" opacity="1.00" d=" M 612.28 349.82 C 622.01 348.73 632.88 348.75 641.10 354.87 C 649.27 361.19 651.95 372.11 651.50 382.00 C 650.98 393.63 648.17 406.17 639.54 414.56 C 632.46 421.84 621.94 424.82 612.00 424.60 C 604.40 424.84 596.41 423.32 590.22 418.67 C 585.97 415.64 583.52 410.79 581.77 406.01 C 580.03 401.18 580.49 395.98 580.45 390.95 C 580.30 383.36 582.75 376.00 585.89 369.18 C 590.91 358.97 600.96 351.44 612.28 349.82 M 611.57 360.00 C 600.01 363.40 594.40 375.90 593.57 387.07 C 593.51 393.65 592.45 400.84 596.03 406.77 C 599.16 412.32 605.81 414.88 611.95 414.63 C 619.16 414.99 626.88 412.31 631.30 406.37 C 636.59 399.45 637.98 390.50 638.41 382.03 C 638.52 375.52 637.75 368.04 632.56 363.45 C 627.05 358.06 618.54 359.08 611.57 360.00 Z" />
<path fill="#1f1c1e" opacity="1.00" d=" M 732.49 358.48 C 739.13 351.83 748.76 348.71 758.05 349.35 C 764.59 349.05 770.25 352.73 775.67 355.87 C 777.39 353.74 779.01 351.46 781.24 349.82 C 783.39 349.08 785.60 349.81 787.52 350.86 C 787.54 357.62 785.80 364.21 785.45 370.95 C 784.49 379.31 783.74 387.71 782.64 396.06 C 782.30 401.21 780.94 406.35 781.71 411.52 C 782.91 416.07 788.40 414.14 791.79 414.47 C 791.65 416.59 791.71 418.77 791.24 420.87 C 789.81 422.86 787.52 424.22 785.07 424.45 C 780.76 424.88 775.83 424.79 772.50 421.61 C 769.46 418.95 768.93 414.72 768.09 411.01 C 764.40 415.47 760.65 420.24 755.11 422.49 C 745.83 426.66 733.70 424.95 726.74 417.23 C 720.81 411.14 719.13 402.23 719.40 394.01 C 719.04 381.13 722.93 367.53 732.49 358.48 M 738.06 369.08 C 731.68 378.35 731.98 390.09 732.69 400.84 C 733.41 407.33 738.35 413.53 745.03 414.42 C 752.53 415.51 759.56 410.72 763.66 404.78 C 767.72 398.85 770.88 392.04 771.37 384.79 C 771.80 378.14 772.83 371.55 773.62 364.94 C 763.45 356.30 745.48 357.34 738.06 369.08 Z" />
<path fill="#1f1c1e" opacity="1.00" d=" M 416.45 351.94 C 425.31 350.89 435.38 351.51 442.47 357.57 C 445.78 360.24 448.03 364.01 449.42 367.99 C 451.18 372.80 450.57 378.01 450.68 383.03 C 450.89 391.38 448.36 399.77 443.68 406.67 C 437.78 415.20 427.31 419.93 417.05 419.63 C 409.12 419.97 400.44 419.37 394.16 413.93 C 385.81 407.03 384.69 394.98 386.21 384.94 C 387.30 374.09 392.45 363.04 401.99 357.19 C 406.28 354.23 411.31 352.62 416.45 351.94 M 416.49 360.90 C 408.53 362.51 402.13 368.88 399.76 376.54 C 397.60 383.62 396.86 391.23 398.11 398.54 C 399.19 405.05 405.13 410.80 411.91 410.60 C 416.84 410.62 422.23 411.25 426.60 408.47 C 434.86 403.52 438.72 393.33 438.69 384.05 C 438.56 378.33 439.70 371.90 435.87 367.06 C 431.69 360.86 423.36 359.57 416.49 360.90 Z" />
<path fill="#1f1c1e" opacity="1.00" d=" M 125.71 357.54 C 132.13 353.09 140.15 351.30 147.89 351.58 C 153.95 351.81 159.45 354.59 164.47 357.77 C 165.98 356.04 167.38 354.17 169.20 352.74 C 171.16 351.97 173.34 352.59 175.39 352.59 C 175.66 356.75 175.22 360.91 174.54 365.01 C 171.30 385.78 169.99 406.79 167.14 427.61 C 166.10 433.56 166.58 439.84 164.26 445.52 C 161.16 445.56 158.03 445.88 154.96 445.36 C 152.28 443.34 154.20 439.65 154.25 436.89 C 154.88 427.17 157.49 417.66 157.51 407.90 C 153.59 411.28 150.43 415.74 145.55 417.84 C 141.03 420.06 135.85 419.71 130.97 419.53 C 122.95 419.11 115.72 413.80 111.96 406.87 C 108.56 400.47 109.21 393.02 109.42 386.04 C 110.44 374.86 116.10 363.69 125.71 357.54 M 139.16 361.67 C 132.83 363.35 127.14 367.78 124.46 373.83 C 121.23 381.08 120.79 389.26 121.58 397.07 C 122.30 403.01 126.12 408.99 132.30 410.27 C 136.93 410.80 142.18 411.31 146.18 408.37 C 153.89 403.00 159.59 394.28 160.29 384.78 C 160.73 378.34 162.00 371.99 162.60 365.57 C 159.36 363.67 156.02 361.48 152.14 361.36 C 147.82 361.14 143.45 361.03 139.16 361.67 Z" />
<path fill="#1f1c1e" opacity="1.00" d=" M 196.88 352.55 C 200.48 352.53 204.48 351.52 207.62 353.82 C 205.92 368.59 204.39 383.37 202.62 398.14 C 201.88 402.68 203.07 408.16 207.76 410.07 C 212.75 411.18 218.55 411.06 222.79 407.80 C 230.33 402.24 235.97 393.49 236.47 383.97 C 237.26 375.91 238.32 367.88 239.34 359.85 C 239.74 357.34 239.23 353.78 242.05 352.56 C 244.86 352.16 247.70 352.42 250.53 352.49 C 251.67 361.19 249.66 369.78 248.70 378.38 C 247.89 389.00 245.54 399.60 246.71 410.29 C 249.68 410.57 252.67 410.60 255.65 410.65 C 255.92 413.99 255.34 417.80 251.77 419.12 C 247.19 419.90 241.61 420.50 237.84 417.19 C 234.87 414.72 234.69 410.59 234.04 407.08 C 228.47 412.66 222.24 418.67 213.97 419.46 C 208.31 419.67 202.04 420.41 197.04 417.14 C 191.89 413.74 189.79 407.07 190.62 401.14 C 191.94 391.87 192.80 382.55 193.80 373.24 C 194.80 366.35 194.34 359.16 196.88 352.55 Z" />
<path fill="#1f1c1e" opacity="1.00" d=" M 276.56 353.57 C 278.80 351.51 282.24 352.49 285.00 352.50 C 287.25 352.54 287.77 355.07 287.41 356.87 C 285.45 372.63 283.11 388.34 281.62 404.15 C 281.47 406.32 281.41 409.02 283.50 410.35 C 286.30 410.69 289.20 410.45 291.89 411.51 C 290.99 414.44 290.43 418.39 286.93 419.30 C 281.03 420.40 272.46 419.93 270.58 412.95 C 269.45 396.28 273.02 379.76 274.61 363.22 C 275.13 359.99 275.12 356.56 276.56 353.57 Z" />
<path fill="#1f1c1e" opacity="1.00" d=" M 333.34 354.10 C 337.81 351.61 343.13 352.25 348.04 352.23 C 356.57 351.95 364.57 357.51 368.30 365.00 C 371.74 371.74 370.70 379.58 370.48 386.86 C 368.98 398.35 362.99 409.92 352.63 415.74 C 345.90 419.86 337.75 420.07 330.12 419.41 C 325.24 418.79 321.08 415.97 316.69 414.00 C 315.30 421.69 314.99 429.51 313.82 437.24 C 313.28 440.02 313.99 443.92 310.98 445.45 C 308.23 445.80 305.45 445.57 302.70 445.57 C 300.36 441.44 302.56 436.74 302.90 432.39 C 305.19 412.10 306.86 391.73 310.01 371.54 C 310.85 366.44 310.24 361.24 310.80 356.12 C 312.85 352.88 319.89 351.78 321.01 356.33 C 321.69 358.50 322.06 360.76 322.56 362.98 C 326.08 359.94 329.18 356.31 333.34 354.10 M 337.93 361.33 C 330.97 363.68 325.87 369.58 322.72 376.01 C 318.51 385.21 318.39 395.68 318.29 405.62 C 323.03 409.35 329.00 411.19 335.02 410.66 C 342.76 411.36 350.52 407.19 354.33 400.46 C 359.20 392.31 358.93 382.39 358.35 373.25 C 357.34 363.94 346.38 358.37 337.93 361.33 Z" />
</g>
</svg>
