<?xml version="1.0" encoding="UTF-8"?>
<!DOCTYPE svg PUBLIC "-//W3C//DTD SVG 1.1//EN" "http://www.w3.org/Graphics/SVG/1.1/DTD/svg11.dtd">
<!-- Creator: CorelDRAW -->
<svg xmlns="http://www.w3.org/2000/svg" xml:space="preserve" width="20.14cm" height="10cm" version="1.1" style="shape-rendering:geometricPrecision; text-rendering:geometricPrecision; image-rendering:optimizeQuality; fill-rule:evenodd; clip-rule:evenodd"
viewBox="0 0 20140 10000"
 xmlns:xlink="http://www.w3.org/1999/xlink"
 xmlns:xodm="http://www.corel.com/coreldraw/odm/2003">
 <defs>
  <style type="text/css">
   <![CDATA[
    .fil2 {fill:#FEFEFE;fill-rule:nonzero}
    .fil0 {fill:#B41E26;fill-rule:nonzero}
    .fil1 {fill:#F6B4B6;fill-rule:nonzero}
   ]]>
  </style>
 </defs>
 <g id="Capa_x0020_1">
  <metadata id="CorelCorpID_0Corel-Layer"/>
  <path class="fil0" d="M8433.04 425.72c59.09,-18.84 121.45,-12.75 182.53,-13.46 604.58,0 1209.05,0.24 1813.63,-0.11 114.67,-2.81 232.97,42.12 307.15,131.75 58.15,59.79 94.89,140.88 96.42,224.65 0,632.2 -0.24,1264.28 -0.12,1896.36 5.03,34.87 -33.11,54.88 -63.19,51.6 -441.12,-0.35 -882.36,-0.23 -1323.36,-0.23 -165.22,-6.67 -342.6,60.49 -437.73,200.78 -27.61,36.86 -42.12,83.31 -77.69,113.85 -93.03,6.55 -186.75,0.23 -280.01,2.34 -87.87,-3.16 -180.19,13.11 -262.79,-25.04 -93.85,-42.59 -181.72,-113.97 -218.34,-213.19 -13.46,-42 -26.33,-85.3 -27.5,-129.64 -0.35,-612.66 0,-1225.2 -0.35,-1837.74 -3.75,-90.91 15.45,-187.45 73.95,-259.52 51.37,-72.55 131.16,-122.63 217.4,-142.4z"/>
  <path class="fil0" d="M6625.38 2363.38c67.28,-27.62 138.07,-50.55 210.96,-55.11 304.46,0.11 608.92,-0.12 913.37,0.23 68.69,0.94 138.42,-5.96 205.59,12.29 -2.7,71.72 0.11,143.45 -0.94,215.18 2.1,81.79 -7.61,164.98 14.16,245.01 31.94,154.69 147.89,277.43 280.23,355.94 115.49,61.08 249.81,73.95 378.52,71.26 95.95,-0.59 191.9,0.94 287.84,-0.59 7.26,24.93 11,50.67 10.3,76.64 -0.58,503.37 -0.7,1006.74 -0.23,1510.11 -3.04,79.92 39.66,151.53 83.66,214.83 84.01,117.83 224.54,186.28 366.59,199.85 87.52,0.7 175.27,1.29 262.91,-1.29 3.86,8.08 11.59,24.23 15.45,32.3 -28.9,47.39 -50.43,99.92 -88.57,141.11 -99.23,114.67 -251.46,168.85 -399.59,178.56 -39.43,1.28 -77.69,-11.47 -117.01,-10.07 -631.96,0.59 -1263.92,-0.11 -1895.77,0.36 -65.99,8.3 -132.22,12.05 -198.8,9.82 -140.06,4.92 -287.95,-18.6 -404.26,-101.79 -104.37,-71.14 -181.95,-186.51 -199.27,-311.95 -1.87,-800.1 -0.46,-1600.21 -0.7,-2400.19 -2.92,-52.07 20.36,-99.93 40.84,-146.26 45.16,-104.26 129.29,-192.48 234.72,-236.24z"/>
  <path class="fil0" d="M11399.91 2894.48c45.86,-18.96 93.72,-7.49 140.76,-2.69 542.21,0.35 1084.43,0.12 1626.65,0.12 136.31,-3.98 263.62,70.08 355.35,166.38 57.81,71.38 97.35,160.89 107.18,252.39 1.17,787.11 -0.11,1574.23 0.59,2361.35 4.21,78.98 -27.62,154.33 -64.12,222.66 -81.21,134.91 -233.2,218.11 -386.6,238.82 -792.03,1.99 -1584.06,0.23 -2376.09,0.93 -34.05,-0.11 -68.45,0.7 -101.21,-9.36 -148.95,-38.49 -293.23,-130.93 -356.76,-276.02 -70.09,-122.98 -22.93,-267.25 -48.21,-399.47 -0.93,-79.91 -10.53,-162.05 9.25,-240.45 235.89,0.58 471.77,-0.12 707.78,0.35 134.44,-3.86 270.87,-56.98 360.5,-159.83 37.8,-45.99 74.19,-94.31 98.41,-149.07 34.63,-93.84 24.69,-195.52 25.74,-293.58 0.47,-483.82 -0.35,-967.66 0.35,-1451.48 -4.09,-63.66 -16.38,-130.58 -54.99,-183.12 -17.09,-24.69 -34.29,-49.61 -44.58,-77.93z"/>
  <path class="fil1" d="M9232.09 2947.49c72.43,-26.1 147.9,-49.85 225.94,-44.7 518.94,1.87 1037.98,1.29 1556.8,0.93 49.73,-2.1 98.29,12.87 141.46,36.74 95.83,54.3 147.44,165.81 146.26,273.57 1.06,433.28 -2.69,866.57 -0.11,1299.85 1.87,90.33 21.64,182.3 -2.58,271.34 -22.11,98.17 -101.44,174.58 -192.59,211.43 -62.95,25.28 -132.22,15.45 -198.33,16.85 -460.2,-0.35 -920.51,0.94 -1380.7,0.24 -67.16,-1.76 -136.67,8.07 -201.61,-13.11 -59.32,-24.57 -109.75,-65.76 -160.65,-104.13 -46.1,-40.26 -40.72,-105.31 -51.6,-159.96 1.75,-109.28 -8.66,-219.97 8.89,-328.2 0.94,-175.63 0.35,-351.38 0.35,-527.01 0.47,-35.46 -12.87,-69.39 -9.94,-104.96 1.29,-206.63 -2.57,-413.27 -0.47,-619.91 10.88,-80.38 43.64,-168.14 118.88,-208.97z"/>
  <path class="fil0" d="M11991.15 6587.26c243.38,5.39 487.57,0.59 731.42,2.23 378.29,-0.12 756.69,-0.12 1135.1,0.12 39.2,0.7 77.34,-11 116.77,-10.18 171.89,0 343.77,0.23 515.77,-0.24 23.17,-1.05 49.26,6.09 63.78,25.63 5.85,53.47 -8.31,106.01 -17.44,158.19 -26.68,142.05 -41.07,286.56 -80.73,425.91 -273.69,-3.74 -547.6,0.12 -821.29,-1.87 -26.44,-0.94 -58.5,0.59 -73.36,25.98 -22.59,63.42 -22.12,131.98 -36.51,197.27 -19.19,88.46 -29.37,178.56 -49.84,266.78 -36.74,164.98 -53.24,333.47 -85.42,499.28 -13.22,114.43 -43.64,225.94 -56.98,340.37 -25.74,133.16 -43.53,267.6 -66.93,401.22 -14.74,83.08 -35.81,165.22 -45.17,249.35 -4.21,51.13 -18.25,100.98 -35.45,149.19 -59.32,15.91 -120.99,10.29 -181.48,11 -159.95,0.46 -319.9,-0.47 -479.85,0.35 -33.58,-0.94 -70.44,5.73 -99.11,-16.15 -9.36,-60.02 18.02,-116.77 24.69,-175.51 18.49,-133.86 45.28,-266.55 67.63,-399.82 13.58,-100.86 41.77,-199.15 50.43,-300.71 27.38,-156.68 53.12,-313.7 78.16,-470.84 4.92,-67.05 36.28,-128.71 39.55,-196 34.29,-173.63 53.01,-349.85 87.29,-523.61 10.42,-27.14 -6.67,-61.66 -38.73,-57.21 -268.77,-0.82 -537.65,0.23 -806.42,-0.47 -24.69,1.05 -47.74,-26.68 -36.28,-50.08 36.28,-182.89 54.88,-369.28 100.4,-550.18z"/>
  <path class="fil0" d="M323.77 6658.87c12.52,-8.89 27.97,-10.29 42.71,-10.88 627.98,-0.23 1255.85,-0.23 1883.84,-0.12 70.32,1.29 140.99,-3.04 211.19,1.53 4.22,3.97 12.76,11.81 16.97,15.79 1.52,187.68 2.11,375.84 -0.35,563.51 -3.86,4.22 -11.7,12.76 -15.56,17.09 -456.92,1.99 -914.07,-0.12 -1370.99,1.05 -29.25,-4.91 -52.65,23.29 -49.84,51.14 0.11,120.98 -0.12,242.08 0.11,363.07 1.17,27.5 14.39,68.1 49.61,62.25 407.89,0.35 816.02,-0.7 1223.91,0.7 -0.23,178.67 -3.16,357.58 1.52,536.14 -174.1,8.3 -348.56,1.63 -522.91,3.86 -230.27,0.11 -460.54,0.11 -690.81,-0.12 -23.64,-3.04 -56.05,11.7 -52.54,39.9 0.58,140.99 0,281.99 0.23,422.87 -2.1,27.61 24.81,52.89 51.95,51.6 466.87,0 933.73,-0.12 1400.59,0 22.35,-1.29 23.06,25.86 22.47,42.01 -0.23,174.92 0.12,349.85 -0.35,524.78 3.98,23.98 -17.9,45.86 -42.01,41.65 -708.72,-0.7 -1417.44,0.12 -2126.16,-0.35 -24.22,3.98 -34.52,-21.29 -31.47,-41.3 0.23,-639.34 0,-1278.79 0.12,-1918.12 -1.64,-256.02 2.92,-512.15 -2.23,-768.05z"/>
  <path class="fil2" d="M19426.68 6994.1c52.89,-34.16 119.7,-31.59 180.08,-25.97 32.41,8.3 23.63,46.57 26.09,71.84 -1.52,172 0.82,343.89 -1.4,515.89 0.12,48.21 -11.82,95.25 -19.19,142.63 -11.7,106.36 -16.03,213.54 -31.48,319.55 -17.78,119.35 -18.13,240.22 -37.79,359.34 -18.95,143.1 -28.08,287.25 -50.55,429.89 -13.1,77.46 -11.58,156.32 -23.63,233.9 -3.28,60.49 -14.05,134.79 38.73,178.55 33.7,31.71 87.64,3.63 123.21,27.85 22.7,59.32 1.63,125.55 11.46,187.68 -73.48,49.85 -166.5,53.71 -251.21,38.5 -94.43,-19.31 -186.16,-82.85 -215.77,-177.74 -14.51,-40.25 -11.11,-83.66 -11.58,-125.55 -4.8,-200.08 37.21,-397.01 47.97,-596.16 5.15,-81.9 32.41,-160.65 36.16,-242.67 10.64,-134.45 34.16,-267.25 44.69,-401.58 3.87,-74.53 17.32,-148.01 23.29,-222.31 8.07,-130.23 31.71,-258.71 42.12,-388.7 6.2,-80.5 22.23,-159.84 30.31,-240.1 4.21,-30.9 10.3,-66.35 38.49,-84.84z"/>
  <path class="fil2" d="M6828.85 7112.28c52.42,-13.57 107.77,-7.02 161.36,-6.67 44.7,-2.46 84.48,42.36 73.13,86.47 -7.96,45.64 -11.12,91.85 -19.66,137.37 -0.93,35.8 -30.3,62.72 -64.7,67.16 -52.42,3.75 -105.08,2.46 -157.38,1.05 -43.18,0.12 -82.72,-43.76 -71.49,-87.05 9.24,-54.17 10.18,-110.57 29.72,-162.29 6.32,-21.88 29.95,-29.14 49.02,-36.04z"/>
  <path class="fil2" d="M16253.41 7330.15c63.89,-32.64 144.86,-37.67 209.57,-4.33 32.53,15.8 52.3,53.59 42.82,89.4 -15.91,102.03 -36.04,203.59 -36.74,307.26 100.28,9.48 201.37,-3.39 301.42,7.02 40.13,3.86 62.01,46.34 53.12,83.43 -12.64,59.91 -49.5,120.16 -108.35,143.8 -81.56,11.47 -165.57,-7.95 -246.31,10.41 -28.55,2.46 -35.22,32.65 -39.08,55.82 -14.5,125.2 -34.16,250.04 -41.42,376.18 -19.77,135.73 -37.09,271.81 -48.44,408.59 -14.74,96.77 -24.34,194.12 -19.89,292.17 -4.68,66.35 49.96,124.97 111.86,141 66.46,16.38 134.44,-0.58 199.5,-15.56 19.77,-7.96 41.07,9.59 40.13,30.19 5.03,65.17 -8.42,142.98 -68.68,179.84 -71.73,43.76 -160.18,49.49 -242.09,44.11 -109.87,-11 -229.8,-46.57 -294.04,-143.45 -61.08,-86.12 -52.42,-196.23 -49.96,-296.15 9.94,-93.02 19.18,-186.05 26.56,-279.18 14.5,-121.69 38.37,-242.21 44.81,-364.72 15.21,-111.27 29.13,-222.78 43.99,-334.06 1.99,-25.86 3.16,-51.95 0.47,-77.69 -56.16,-43.88 -132.1,-14.86 -196.69,-26.68 -22.58,-14.04 -37.44,-40.37 -37.32,-66.81 -4.1,-50.66 6.43,-107.88 45.75,-143.22 63.06,-38.03 139.59,-11.82 208.04,-25.86 16.03,-15.79 18.95,-39.2 23.63,-60.02 9.13,-77.81 13.69,-155.97 23.87,-233.55 4.8,-37.56 16.5,-79.92 53.47,-97.94z"/>
  <g>
   <path class="fil2" d="M14716.63 7713.12c132.33,-5.03 267.36,4.45 391.39,54.64 185.81,62.95 318.85,236.24 359.8,424.51 14.04,63.54 25.27,128.24 22.7,193.65 4.68,193.18 -10.76,392.56 -90.33,571.12 -33,70.09 -59.21,145.79 -112.56,203.83 -58.98,65.87 -116.54,136.08 -194.24,180.77 -108.11,74.3 -238.11,108.47 -366.35,126.72 -158.78,25.63 -323.41,11.82 -477.16,-34.16 -78.63,-22 -147.9,-67.28 -211.9,-116.66 -63.42,-48.56 -101.56,-120.63 -138.07,-189.79 -65.29,-127.07 -74.07,-273.56 -71.61,-413.74 7.49,-126.25 20.71,-253.67 65.87,-372.91 38.38,-97.46 72.78,-199.38 138.54,-282.46 69.97,-93.48 157.85,-173.99 257.54,-234.48 131.52,-66.81 278.83,-106.24 426.38,-111.04l0 0zm-106.01 244.2c-175.98,28.9 -319.9,163.93 -390.11,323.76 -42.71,105.19 -77.34,216.23 -77.81,330.78 -12.05,83.19 -16.03,168.14 -1.76,251.45 5.62,94.55 40.84,188.15 102.27,260.58 79.68,79.69 193.88,114.08 304.11,122.28 130.81,6.19 265.13,-26.33 374.42,-99.81 162.18,-120.76 235.89,-327.04 251.69,-522.56 20.59,-139.59 19.19,-284.1 -19.89,-420.41 -36.16,-112.57 -130.35,-205.82 -245.14,-236.36 -96.53,-26.8 -199.73,-26.33 -297.78,-9.71z"/>
  </g>
  <g>
   <path class="fil2" d="M17744.92 7735.7c98.76,-29.72 203.13,-24.1 305.04,-19.89 111.28,21.41 222.2,62.25 311.24,134.21 14.28,11.82 32.65,22 52.07,15.33 37.33,-49.96 60.96,-124.73 129.3,-139.24 43.17,-0.47 106.94,-15.33 127.89,35.45 13.57,123.33 -20.13,244.9 -31.48,367.06 -5.38,109.75 -23.28,218.45 -35.1,327.62 -13.92,229.34 -64.36,455.98 -60.84,686.37 -2.7,39.9 21.41,79.22 59.9,92.21 54.06,31 113.5,-11 170.13,2.57 9.6,14.39 16.97,31.71 12.17,49.61 -7.25,56.05 -16.03,122.51 -69.85,154.1 -94.31,50.55 -210.73,51.02 -309.72,13.69 -51.84,-16.85 -93.49,-55.58 -121.81,-101.09 -36.97,-56.87 -44.93,-125.91 -59.09,-190.73 -28.66,25.74 -54.87,53.83 -77.46,85.07 -143.68,188.03 -405.55,279.65 -633.48,209.21 -197.16,-45.99 -350.91,-214.95 -398.3,-408.95 -36.97,-150 -45.63,-307.14 -23.63,-460.07 16.96,-143.81 47.85,-289.36 118.64,-417.02 68.57,-131.4 177.86,-235.66 290.65,-329.26 70.44,-55.93 158.9,-81.21 243.73,-106.25l0 0zm153.87 219.86c-168.84,7.72 -329.85,112.8 -403.21,265.14 -29.37,58.62 -60.97,117.36 -75.12,181.95 -14.16,62.13 -21.18,125.67 -26.1,189.2 -20.01,130.35 -9.12,263.39 17.44,391.87 13.92,60.6 52.07,111.27 89.51,159.36 26.33,33.81 65.06,54.18 103.67,71.26 65.41,31.59 140.41,20.36 210.61,18.72 116.55,-29.48 220.45,-104.96 289.6,-203.01 79.68,-100.86 130.82,-221.03 174.69,-340.85 20.36,-139.24 35.69,-279.76 46.11,-420.06 6.55,-65.17 32.52,-134.55 12.75,-198.44 -119.47,-100.86 -287.49,-136.2 -439.95,-115.14z"/>
  </g>
  <g>
   <path class="fil2" d="M3308.07 7840.42c144.74,-63.3 306.56,-79.91 462.89,-64.58 78.98,15.91 161.23,31.47 229.1,77.81 30.19,19.19 56.98,44.11 89.74,59.09 24.46,5.85 34.41,-22.82 45.52,-38.62 22.47,-42.24 56.63,-87.75 108.7,-90.44 30.07,0.35 67.51,-9.13 90.8,15.32 14.74,12.41 19.66,31.6 22.93,49.85 -10.06,136.67 -26.56,272.75 -50.31,407.89 -5.03,98.4 -25.98,194.82 -36.74,292.64 -4.91,119.46 -27.73,237.53 -36.62,356.64 -5.39,128.01 -31.95,253.79 -40.25,381.45 -14.16,160.53 -46.69,318.96 -57.81,479.85 -12.17,56.4 0.24,119.35 -30.07,170.71 -38.26,47.16 -104.6,32.06 -157.49,34.64 -36.62,2.46 -78.98,-5.5 -98.29,-40.37 -14.39,-91.73 21.18,-181.83 20.83,-273.56 2.45,-129.53 46.34,-253.68 49.38,-382.97 9.24,-55.23 9.94,-111.16 10.29,-166.97 -35.68,10.53 -62.95,36.62 -85.18,65.52 -100.86,120.75 -256.6,193.42 -414.21,189.79 -128.59,4.44 -261.75,-21.18 -371.5,-90.56 -71.03,-52.66 -137.25,-115.61 -181.36,-192.95 -41.66,-85.42 -68.8,-178.56 -76.76,-273.33 -17.32,-85.66 0.58,-171.89 8.54,-257.19 23.17,-116.3 45.98,-235.89 107.06,-339.21 55.7,-95.94 120.05,-190.6 209.8,-257.88 56.05,-43.88 117.94,-79.92 181.01,-112.57l0 0zm351.61 142.17c-87.52,3.98 -176.1,20.36 -254.73,60.61 -119.46,52.89 -214,157.26 -258,280 -40.13,102.27 -48.68,212.73 -66.81,320.25 -14.74,78.75 10.18,157.03 25.04,233.79 23.64,112.56 100.39,219.97 213.77,254.37 125.09,38.85 278.25,34.29 379.35,-58.27 47.62,-41.65 98.87,-80.26 138.06,-130.34 64.71,-89.52 126.37,-185.81 148.96,-295.57 11.23,-94.54 22.23,-189.08 35.33,-283.51 3.16,-75.94 16.27,-150.94 31.71,-225.12 8.43,-25.28 -13.1,-46.92 -31.24,-60.85 -105.31,-71.49 -234.95,-102.73 -361.44,-95.36z"/>
  </g>
  <path class="fil2" d="M4861.59 7803.22c36.16,-27.97 84.37,-18.14 126.84,-20.36 38.03,-0.82 87.87,0.47 109.17,37.44 10.53,65.64 -7.14,131.05 -11.47,196.57 -15.09,134.56 -31.94,269.01 -44.23,404.03 -1.64,115.37 -37.56,227.35 -37.32,342.96 -9.95,73.13 -15.21,147.31 -9.37,221.14 9.48,70.56 62.02,133.74 130.82,153.63 96.18,29.02 203.24,16.85 292.05,-29.25 100.98,-55.11 183.59,-139.59 243.62,-237.17 50.89,-76.88 94.77,-161.24 109.05,-253.33 23.52,-184.17 38.14,-369.63 67.51,-553.21 12.76,-72.78 10.3,-147.55 26.68,-219.75 9.36,-37.2 47.62,-62.83 85.06,-62.01 40.02,-1.4 80.15,-2.22 120.17,0.93 37.8,3.05 71.26,35.69 68.34,74.89 -9.48,75.12 -17.67,150.36 -24.11,225.83 -10.53,74.06 -32.18,146.73 -33.58,221.96 -20.13,194.47 -45.63,388.35 -60.26,583.41 -8.89,54.99 -11.12,110.92 -8.77,166.62 0.7,38.84 23.51,80.85 62.13,93.25 52.07,5.85 104.84,2.11 157.02,-0.82 8.89,60.61 3.04,132.34 -47.27,174.23 -65.88,49.14 -152.46,40.84 -229.69,38.26 -66.23,-9.01 -135.26,-37.33 -173.75,-94.66 -40.14,-58.74 -36.28,-133.51 -63.54,-197.39 -107.41,117.47 -231.56,234.72 -391.28,272.63 -90.91,27.49 -186.98,22.11 -280.58,18.49 -80.74,-12.29 -167.21,-31.25 -227.12,-90.8 -74.41,-71.15 -105.07,-175.98 -113.84,-275.67 33.93,-264.91 58.97,-530.64 89.39,-795.9 1.4,-98.28 20.24,-195.17 30.66,-292.64 7.6,-35.33 5.14,-79.91 37.67,-103.31z"/>
  <path class="fil2" d="M6760.17 7786.37c51.83,-5.15 104.26,-3.86 156.33,-1.53 23.75,-0.93 41.3,19.08 51.95,38.27 7.37,39.08 4.09,79.56 -0.12,118.88 -19.66,128.36 -31.12,257.65 -46.92,386.59 -9.25,61.55 -22.35,122.63 -29.49,184.53 -4.33,116.19 -31.82,230.15 -36.74,346.22 0.94,73.49 -21.88,146.27 -9.83,219.75 7.49,27.38 23.29,54.87 49.26,68.56 53.13,16.27 112.45,-7.13 165.1,11 16.62,36.16 0.12,81.09 -11.93,117.6 -17.08,54.87 -77.46,75 -128.24,84.94 -83.2,7.96 -172.36,7.02 -245.72,-38.37 -72.43,-37.8 -105.31,-124.15 -100.98,-202.31 -4.56,-115.72 7.37,-230.63 18.96,-345.29 18.95,-172.83 31.47,-346.47 59.44,-518.24 11.23,-105.42 20,-210.96 38.02,-315.45 -0.82,-57.57 4.33,-136.08 70.91,-155.15z"/>
  <g>
   <path class="fil2" d="M9965.62 7782.97c91.03,-17.78 184.52,-11.23 276.84,-10.29 117.24,13.22 240.69,37.67 333.71,115.6 131.28,90.1 204.18,245.72 220.44,400.99 0.82,71.73 21.41,143.1 3.63,214.48 0.35,102.38 -18.61,203.36 -46.46,301.64 -46.68,152.35 -130.11,298.49 -260.1,394.56 -126.26,110.1 -295.33,153.51 -459.26,163.46 -162.06,4.21 -333.36,0.23 -479.27,-79.1 -106.71,-62.72 -198.91,-159.01 -236.59,-278.95 -58.5,-168.14 -46.45,-350.32 -22.7,-523.73 30.54,-166.15 95.95,-329.84 211.43,-455.51 60.15,-70.44 139.36,-120.41 218.22,-167.32 72.78,-43.77 157.26,-61.67 240.11,-75.83l0 0zm70.32 199.74c-93.26,8.54 -181.83,50.19 -256.13,105.89 -90.33,79.68 -159.6,186.39 -186.28,304.57 -25.62,100.98 -41.42,204.77 -36.62,309.14 -5.15,101.8 8.07,207.92 60.49,297.2 57.45,81.67 148.13,141.82 249.11,151.06 124.96,5.5 260.46,13.57 371.5,-55 64.83,-46.21 129.77,-97.58 169.43,-168.14 48.56,-85.3 81.32,-179.02 101.21,-274.97 14.04,-56.63 4.57,-115.37 11.35,-172.59 12.29,-60.84 -5.5,-121.68 -4.09,-182.76 -18.49,-128.24 -105.9,-250.75 -231.8,-291.7 -78.98,-31.83 -165.21,-22.82 -248.17,-22.7z"/>
  </g>
  <g>
   <path class="fil2" d="M8040.71 7839.6c124.73,-53.94 264.56,-75.47 398.77,-49.84 82.72,19.66 170.59,33.7 240.45,86.24 86.12,64.82 164.39,147.19 201.13,250.63 32.88,106.94 55.47,217.98 46.34,330.43 -11.35,164.16 -45.75,328.68 -113.73,479.15 -43.18,87.64 -100.51,169.19 -174.81,233.32 -80.62,67.51 -168.26,130.69 -270.29,161.11 -119.12,40.37 -246.3,35.22 -370.1,30.78 -61.43,-9.01 -121.34,-27.26 -178.55,-51.02 -55.94,-22.93 -100.86,-66.34 -159.25,-83.89 -14.98,111.97 -29.25,224.07 -37.68,336.75 -16.97,96.76 -28.67,194.58 -33.7,292.87 -4.68,43.64 -17.78,100.51 -66.81,113.03 -51.95,5.27 -104.49,3.63 -156.56,1.87 -28.31,1.52 -50.55,-25.74 -54.41,-51.48 -7.37,-69.15 9.6,-137.37 15.45,-205.82 21.76,-111.28 25.98,-224.66 36.51,-337.1 13.92,-79.92 18.95,-160.77 27.96,-241.27 5.15,-109.87 26.8,-218.22 36.04,-327.63 4.09,-112.68 29.96,-222.9 43.29,-334.52 8.08,-126.96 41.42,-251.34 40.61,-378.99 9.82,-77.11 14.39,-154.92 8.65,-232.62 60.15,-40.95 134.21,-54.29 205.47,-41.07 55.81,54.53 59.21,141.82 53.01,214.95 54.29,-11 84.47,-60.73 124.84,-93.37 43.88,-36.63 85.42,-77.46 137.37,-102.51l0 0zm179.49 152.7c-120.63,18.72 -230.62,90.1 -307.03,184.29 -71.73,82.26 -110.46,185.58 -153.51,284.1 -24.11,49.26 -13.81,104.84 -23.52,157.14 -16.85,81.67 -26.33,164.75 -29.72,248.06 -3.39,49.84 -21.88,101.68 -6.91,150.82 28.55,34.4 68.69,56.75 108.7,75.59 66.35,28.78 136.67,53.71 210.04,51.72 76.75,-0.71 155.85,7.13 230.27,-16.39 86.82,-20.35 163.11,-72.3 224.3,-135.84 80.62,-88.11 122.63,-203.36 146.15,-318.73 13.92,-158.9 37.21,-324.58 -14.63,-479.39 -30.07,-87.75 -109.4,-146.84 -191.89,-181.36 -62.25,-17.67 -127.78,-23.17 -192.25,-20.01z"/>
  </g>
 </g>
</svg>
