<?xml version="1.0" encoding="UTF-8" ?>
<!DOCTYPE svg PUBLIC "-//W3C//DTD SVG 1.1//EN" "http://www.w3.org/Graphics/SVG/1.1/DTD/svg11.dtd">
<svg width="1655pt" height="824pt" viewBox="0 0 1655 824" version="1.1" xmlns="http://www.w3.org/2000/svg">
<path fill="#b41e26" opacity="1.00" d=" M 694.40 3.65 C 699.45 2.04 704.78 2.56 710.00 2.50 C 761.67 2.50 813.33 2.52 865.00 2.49 C 874.80 2.25 884.91 6.09 891.25 13.75 C 896.22 18.86 899.36 25.79 899.49 32.95 C 899.49 86.98 899.47 141.00 899.48 195.02 C 899.91 198.00 896.65 199.71 894.08 199.43 C 856.38 199.40 818.67 199.41 780.98 199.41 C 766.86 198.84 751.70 204.58 743.57 216.57 C 741.21 219.72 739.97 223.69 736.93 226.30 C 728.98 226.86 720.97 226.32 713.00 226.50 C 705.49 226.23 697.60 227.62 690.54 224.36 C 682.52 220.72 675.01 214.62 671.88 206.14 C 670.73 202.55 669.63 198.85 669.53 195.06 C 669.50 142.70 669.53 90.35 669.50 38.00 C 669.18 30.23 670.82 21.98 675.82 15.82 C 680.21 9.62 687.03 5.34 694.40 3.65 Z" />
<path fill="#b41e26" opacity="1.00" d=" M 539.91 169.25 C 545.66 166.89 551.71 164.93 557.94 164.54 C 583.96 164.55 609.98 164.53 636.00 164.56 C 641.87 164.64 647.83 164.05 653.57 165.61 C 653.34 171.74 653.58 177.87 653.49 184.00 C 653.67 190.99 652.84 198.10 654.70 204.94 C 657.43 218.16 667.34 228.65 678.65 235.36 C 688.52 240.58 700.00 241.68 711.00 241.45 C 719.20 241.40 727.40 241.53 735.60 241.40 C 736.22 243.53 736.54 245.73 736.48 247.95 C 736.43 290.97 736.42 333.99 736.46 377.01 C 736.20 383.84 739.85 389.96 743.61 395.37 C 750.79 405.44 762.80 411.29 774.94 412.45 C 782.42 412.51 789.92 412.56 797.41 412.34 C 797.74 413.03 798.40 414.41 798.73 415.10 C 796.26 419.15 794.42 423.64 791.16 427.16 C 782.68 436.96 769.67 441.59 757.01 442.42 C 753.64 442.53 750.37 441.44 747.01 441.56 C 693.00 441.61 638.99 441.55 584.99 441.59 C 579.35 442.30 573.69 442.62 568.00 442.43 C 556.03 442.85 543.39 440.84 533.45 433.73 C 524.53 427.65 517.90 417.79 516.42 407.07 C 516.26 338.69 516.38 270.31 516.36 201.94 C 516.11 197.49 518.10 193.40 519.85 189.44 C 523.71 180.53 530.90 172.99 539.91 169.25 Z" />
<path fill="#b41e26" opacity="1.00" d=" M 947.96 214.64 C 951.88 213.02 955.97 214.00 959.99 214.41 C 1006.33 214.44 1052.67 214.42 1099.01 214.42 C 1110.66 214.08 1121.54 220.41 1129.38 228.64 C 1134.32 234.74 1137.70 242.39 1138.54 250.21 C 1138.64 317.48 1138.53 384.75 1138.59 452.02 C 1138.95 458.77 1136.23 465.21 1133.11 471.05 C 1126.17 482.58 1113.18 489.69 1100.07 491.46 C 1032.38 491.63 964.69 491.48 897.00 491.54 C 894.09 491.53 891.15 491.60 888.35 490.74 C 875.62 487.45 863.29 479.55 857.86 467.15 C 851.87 456.64 855.90 444.31 853.74 433.01 C 853.66 426.18 852.84 419.16 854.53 412.46 C 874.69 412.51 894.85 412.45 915.02 412.49 C 926.51 412.16 938.17 407.62 945.83 398.83 C 949.06 394.90 952.17 390.77 954.24 386.09 C 957.20 378.07 956.35 369.38 956.44 361.00 C 956.48 319.65 956.41 278.30 956.47 236.95 C 956.12 231.51 955.07 225.79 951.77 221.30 C 950.31 219.19 948.84 217.06 947.96 214.64 Z" />
<path fill="#f6b4b6" opacity="1.00" d=" M 762.69 219.17 C 768.88 216.94 775.33 214.91 782.00 215.35 C 826.35 215.51 870.71 215.46 915.05 215.43 C 919.30 215.25 923.45 216.53 927.14 218.57 C 935.33 223.21 939.74 232.74 939.64 241.95 C 939.73 278.98 939.41 316.01 939.63 353.04 C 939.79 360.76 941.48 368.62 939.41 376.23 C 937.52 384.62 930.74 391.15 922.95 394.30 C 917.57 396.46 911.65 395.62 906.00 395.74 C 866.67 395.71 827.33 395.82 788.00 395.76 C 782.26 395.61 776.32 396.45 770.77 394.64 C 765.70 392.54 761.39 389.02 757.04 385.74 C 753.10 382.30 753.56 376.74 752.63 372.07 C 752.78 362.73 751.89 353.27 753.39 344.02 C 753.47 329.01 753.42 313.99 753.42 298.98 C 753.46 295.95 752.32 293.05 752.57 290.01 C 752.68 272.35 752.35 254.69 752.53 237.03 C 753.46 230.16 756.26 222.66 762.69 219.17 Z" />
<path fill="#b41e26" opacity="1.00" d=" M 998.49 530.24 C 1019.29 530.70 1040.16 530.29 1061.00 530.43 C 1093.33 530.42 1125.67 530.42 1158.01 530.44 C 1161.36 530.50 1164.62 529.50 1167.99 529.57 C 1182.68 529.57 1197.37 529.59 1212.07 529.55 C 1214.05 529.46 1216.28 530.07 1217.52 531.74 C 1218.02 536.31 1216.81 540.80 1216.03 545.26 C 1213.75 557.40 1212.52 569.75 1209.13 581.66 C 1185.74 581.34 1162.33 581.67 1138.94 581.50 C 1136.68 581.42 1133.94 581.55 1132.67 583.72 C 1130.74 589.14 1130.78 595.00 1129.55 600.58 C 1127.91 608.14 1127.04 615.84 1125.29 623.38 C 1122.15 637.48 1120.74 651.88 1117.99 666.05 C 1116.86 675.83 1114.26 685.36 1113.12 695.14 C 1110.92 706.52 1109.40 718.01 1107.40 729.43 C 1106.14 736.53 1104.34 743.55 1103.54 750.74 C 1103.18 755.11 1101.98 759.37 1100.51 763.49 C 1095.44 764.85 1090.17 764.37 1085.00 764.43 C 1071.33 764.47 1057.66 764.39 1043.99 764.46 C 1041.12 764.38 1037.97 764.95 1035.52 763.08 C 1034.72 757.95 1037.06 753.10 1037.63 748.08 C 1039.21 736.64 1041.50 725.30 1043.41 713.91 C 1044.57 705.29 1046.98 696.89 1047.72 688.21 C 1050.06 674.82 1052.26 661.40 1054.40 647.97 C 1054.82 642.24 1057.50 636.97 1057.78 631.22 C 1060.71 616.38 1062.31 601.32 1065.24 586.47 C 1066.13 584.15 1064.67 581.20 1061.93 581.58 C 1038.96 581.51 1015.98 581.60 993.01 581.54 C 990.90 581.63 988.93 579.26 989.91 577.26 C 993.01 561.63 994.60 545.70 998.49 530.24 Z" />
<path fill="#b41e26" opacity="1.00" d=" M 1.35 536.36 C 2.42 535.60 3.74 535.48 5.00 535.43 C 58.67 535.41 112.33 535.41 166.00 535.42 C 172.01 535.53 178.05 535.16 184.05 535.55 C 184.41 535.89 185.14 536.56 185.50 536.90 C 185.63 552.94 185.68 569.02 185.47 585.06 C 185.14 585.42 184.47 586.15 184.14 586.52 C 145.09 586.69 106.02 586.51 66.97 586.61 C 64.47 586.19 62.47 588.60 62.71 590.98 C 62.72 601.32 62.70 611.67 62.72 622.01 C 62.82 624.36 63.95 627.83 66.96 627.33 C 101.82 627.36 136.70 627.27 171.56 627.39 C 171.54 642.66 171.29 657.95 171.69 673.21 C 156.81 673.92 141.90 673.35 127.00 673.54 C 107.32 673.55 87.64 673.55 67.96 673.53 C 65.94 673.27 63.17 674.53 63.47 676.94 C 63.52 688.99 63.47 701.04 63.49 713.08 C 63.31 715.44 65.61 717.60 67.93 717.49 C 107.83 717.49 147.73 717.48 187.63 717.49 C 189.54 717.38 189.60 719.70 189.55 721.08 C 189.53 736.03 189.56 750.98 189.52 765.93 C 189.86 767.98 187.99 769.85 185.93 769.49 C 125.36 769.43 64.79 769.50 4.22 769.46 C 2.15 769.80 1.27 767.64 1.53 765.93 C 1.55 711.29 1.53 656.64 1.54 602.00 C 1.40 580.12 1.79 558.23 1.35 536.36 Z" />
<path fill="#000000" opacity="1.00" d=" M 1633.96 565.01 C 1638.48 562.09 1644.19 562.31 1649.35 562.79 C 1652.12 563.50 1651.37 566.77 1651.58 568.93 C 1651.45 583.63 1651.65 598.32 1651.46 613.02 C 1651.47 617.14 1650.45 621.16 1649.82 625.21 C 1648.82 634.30 1648.45 643.46 1647.13 652.52 C 1645.61 662.72 1645.58 673.05 1643.90 683.23 C 1642.28 695.46 1641.50 707.78 1639.58 719.97 C 1638.46 726.59 1638.59 733.33 1637.56 739.96 C 1637.28 745.13 1636.36 751.48 1640.87 755.22 C 1643.75 757.93 1648.36 755.53 1651.40 757.60 C 1653.34 762.67 1651.54 768.33 1652.38 773.64 C 1646.10 777.90 1638.15 778.23 1630.91 776.93 C 1622.84 775.28 1615.00 769.85 1612.47 761.74 C 1611.23 758.30 1611.52 754.59 1611.48 751.01 C 1611.07 733.91 1614.66 717.08 1615.58 700.06 C 1616.02 693.06 1618.35 686.33 1618.67 679.32 C 1619.58 667.83 1621.59 656.48 1622.49 645.00 C 1622.82 638.63 1623.97 632.35 1624.48 626.00 C 1625.17 614.87 1627.19 603.89 1628.08 592.78 C 1628.61 585.90 1629.98 579.12 1630.67 572.26 C 1631.03 569.62 1631.55 566.59 1633.96 565.01 Z" />
<path fill="#000000" opacity="1.00" d=" M 557.30 575.11 C 561.78 573.95 566.51 574.51 571.09 574.54 C 574.91 574.33 578.31 578.16 577.34 581.93 C 576.66 585.83 576.39 589.78 575.66 593.67 C 575.58 596.73 573.07 599.03 570.13 599.41 C 565.65 599.73 561.15 599.62 556.68 599.50 C 552.99 599.51 549.61 595.76 550.57 592.06 C 551.36 587.43 551.44 582.61 553.11 578.19 C 553.65 576.32 555.67 575.70 557.30 575.11 Z" />
<path fill="#000000" opacity="1.00" d=" M 1362.76 593.73 C 1368.22 590.94 1375.14 590.51 1380.67 593.36 C 1383.45 594.71 1385.14 597.94 1384.33 601.00 C 1382.97 609.72 1381.25 618.40 1381.19 627.26 C 1389.76 628.07 1398.40 626.97 1406.95 627.86 C 1410.38 628.19 1412.25 631.82 1411.49 634.99 C 1410.41 640.11 1407.26 645.26 1402.23 647.28 C 1395.26 648.26 1388.08 646.60 1381.18 648.17 C 1378.74 648.38 1378.17 650.96 1377.84 652.94 C 1376.60 663.64 1374.92 674.31 1374.30 685.09 C 1372.61 696.69 1371.13 708.32 1370.16 720.01 C 1368.90 728.28 1368.08 736.60 1368.46 744.98 C 1368.06 750.65 1372.73 755.66 1378.02 757.03 C 1383.70 758.43 1389.51 756.98 1395.07 755.70 C 1396.76 755.02 1398.58 756.52 1398.50 758.28 C 1398.93 763.85 1397.78 770.50 1392.63 773.65 C 1386.50 777.39 1378.94 777.88 1371.94 777.42 C 1362.55 776.48 1352.30 773.44 1346.81 765.16 C 1341.59 757.80 1342.33 748.39 1342.54 739.85 C 1343.39 731.90 1344.18 723.95 1344.81 715.99 C 1346.05 705.59 1348.09 695.29 1348.64 684.82 C 1349.94 675.31 1351.13 665.78 1352.40 656.27 C 1352.57 654.06 1352.67 651.83 1352.44 649.63 C 1347.64 645.88 1341.15 648.36 1335.63 647.35 C 1333.70 646.15 1332.43 643.90 1332.44 641.64 C 1332.09 637.31 1332.99 632.42 1336.35 629.40 C 1341.74 626.15 1348.28 628.39 1354.13 627.19 C 1355.50 625.84 1355.75 623.84 1356.15 622.06 C 1356.93 615.41 1357.32 608.73 1358.19 602.10 C 1358.60 598.89 1359.60 595.27 1362.76 593.73 Z" />
<path fill="#000000" opacity="1.00" d=" M 1231.42 626.46 C 1242.73 626.03 1254.27 626.84 1264.87 631.13 C 1280.75 636.51 1292.12 651.32 1295.62 667.41 C 1296.82 672.84 1297.78 678.37 1297.56 683.96 C 1297.96 700.47 1296.64 717.51 1289.84 732.77 C 1287.02 738.76 1284.78 745.23 1280.22 750.19 C 1275.18 755.82 1270.26 761.82 1263.62 765.64 C 1254.38 771.99 1243.27 774.91 1232.31 776.47 C 1218.74 778.66 1204.67 777.48 1191.53 773.55 C 1184.81 771.67 1178.89 767.80 1173.42 763.58 C 1168.00 759.43 1164.74 753.27 1161.62 747.36 C 1156.04 736.50 1155.29 723.98 1155.50 712.00 C 1156.14 701.21 1157.27 690.32 1161.13 680.13 C 1164.41 671.80 1167.35 663.09 1172.97 655.99 C 1178.95 648.00 1186.46 641.12 1194.98 635.95 C 1206.22 630.24 1218.81 626.87 1231.42 626.46 M 1222.36 647.33 C 1207.32 649.80 1195.02 661.34 1189.02 675.00 C 1185.37 683.99 1182.41 693.48 1182.37 703.27 C 1181.34 710.38 1181.00 717.64 1182.22 724.76 C 1182.70 732.84 1185.71 740.84 1190.96 747.03 C 1197.77 753.84 1207.53 756.78 1216.95 757.48 C 1228.13 758.01 1239.61 755.23 1248.95 748.95 C 1262.81 738.63 1269.11 721.00 1270.46 704.29 C 1272.22 692.36 1272.10 680.01 1268.76 668.36 C 1265.67 658.74 1257.62 650.77 1247.81 648.16 C 1239.56 645.87 1230.74 645.91 1222.36 647.33 Z" />
<path fill="#000000" opacity="1.00" d=" M 1490.23 628.39 C 1498.67 625.85 1507.59 626.33 1516.30 626.69 C 1525.81 628.52 1535.29 632.01 1542.90 638.16 C 1544.12 639.17 1545.69 640.04 1547.35 639.47 C 1550.54 635.20 1552.56 628.81 1558.40 627.57 C 1562.09 627.53 1567.54 626.26 1569.33 630.60 C 1570.49 641.14 1567.61 651.53 1566.64 661.97 C 1566.18 671.35 1564.65 680.64 1563.64 689.97 C 1562.45 709.57 1558.14 728.94 1558.44 748.63 C 1558.21 752.04 1560.27 755.40 1563.56 756.51 C 1568.18 759.16 1573.26 755.57 1578.10 756.73 C 1578.92 757.96 1579.55 759.44 1579.14 760.97 C 1578.52 765.76 1577.77 771.44 1573.17 774.14 C 1565.11 778.46 1555.16 778.50 1546.70 775.31 C 1542.27 773.87 1538.71 770.56 1536.29 766.67 C 1533.13 761.81 1532.45 755.91 1531.24 750.37 C 1528.79 752.57 1526.55 754.97 1524.62 757.64 C 1512.34 773.71 1489.96 781.54 1470.48 775.52 C 1453.63 771.59 1440.49 757.15 1436.44 740.57 C 1433.28 727.75 1432.54 714.32 1434.42 701.25 C 1435.87 688.96 1438.51 676.52 1444.56 665.61 C 1450.42 654.38 1459.76 645.47 1469.40 637.47 C 1475.42 632.69 1482.98 630.53 1490.23 628.39 M 1503.38 647.18 C 1488.95 647.84 1475.19 656.82 1468.92 669.84 C 1466.41 674.85 1463.71 679.87 1462.50 685.39 C 1461.29 690.70 1460.69 696.13 1460.27 701.56 C 1458.56 712.70 1459.49 724.07 1461.76 735.05 C 1462.95 740.23 1466.21 744.56 1469.41 748.67 C 1471.66 751.56 1474.97 753.30 1478.27 754.76 C 1483.86 757.46 1490.27 756.50 1496.27 756.36 C 1506.23 753.84 1515.11 747.39 1521.02 739.01 C 1527.83 730.39 1532.20 720.12 1535.95 709.88 C 1537.69 697.98 1539.00 685.97 1539.89 673.98 C 1540.45 668.41 1542.67 662.48 1540.98 657.02 C 1530.77 648.40 1516.41 645.38 1503.38 647.18 Z" />
<path fill="#000000" opacity="1.00" d=" M 256.40 637.34 C 268.77 631.93 282.60 630.51 295.96 631.82 C 302.71 633.18 309.74 634.51 315.54 638.47 C 318.12 640.11 320.41 642.24 323.21 643.52 C 325.30 644.02 326.15 641.57 327.10 640.22 C 329.02 636.61 331.94 632.72 336.39 632.49 C 338.96 632.52 342.16 631.71 344.15 633.80 C 345.41 634.86 345.83 636.50 346.11 638.06 C 345.25 649.74 343.84 661.37 341.81 672.92 C 341.38 681.33 339.59 689.57 338.67 697.93 C 338.25 708.14 336.30 718.23 335.54 728.41 C 335.08 739.35 332.81 750.10 332.10 761.01 C 330.89 774.73 328.11 788.27 327.16 802.02 C 326.12 806.84 327.18 812.22 324.59 816.61 C 321.32 820.64 315.65 819.35 311.13 819.57 C 308.00 819.78 304.38 819.10 302.73 816.12 C 301.50 808.28 304.54 800.58 304.51 792.74 C 304.72 781.67 308.47 771.06 308.73 760.01 C 309.52 755.29 309.58 750.51 309.61 745.74 C 306.56 746.64 304.23 748.87 302.33 751.34 C 293.71 761.66 280.40 767.87 266.93 767.56 C 255.94 767.94 244.56 765.75 235.18 759.82 C 229.11 755.32 223.45 749.94 219.68 743.33 C 216.12 736.03 213.80 728.07 213.12 719.97 C 211.64 712.65 213.17 705.28 213.85 697.99 C 215.83 688.05 217.78 677.83 223.00 669.00 C 227.76 660.80 233.26 652.71 240.93 646.96 C 245.72 643.21 251.01 640.13 256.40 637.34 M 286.45 649.49 C 278.97 649.83 271.40 651.23 264.68 654.67 C 254.47 659.19 246.39 668.11 242.63 678.60 C 239.20 687.34 238.47 696.78 236.92 705.97 C 235.66 712.70 237.79 719.39 239.06 725.95 C 241.08 735.57 247.64 744.75 257.33 747.69 C 268.02 751.01 281.11 750.62 289.75 742.71 C 293.82 739.15 298.20 735.85 301.55 731.57 C 307.08 723.92 312.35 715.69 314.28 706.31 C 315.24 698.23 316.18 690.15 317.30 682.08 C 317.57 675.59 318.69 669.18 320.01 662.84 C 320.73 660.68 318.89 658.83 317.34 657.64 C 308.34 651.53 297.26 648.86 286.45 649.49 Z" />
<path fill="#000000" opacity="1.00" d=" M 389.17 634.16 C 392.26 631.77 396.38 632.61 400.01 632.42 C 403.26 632.35 407.52 632.46 409.34 635.62 C 410.24 641.23 408.73 646.82 408.36 652.42 C 407.07 663.92 405.63 675.41 404.58 686.95 C 404.44 696.81 401.37 706.38 401.39 716.26 C 400.54 722.51 400.09 728.85 400.59 735.16 C 401.40 741.19 405.89 746.59 411.77 748.29 C 419.99 750.77 429.14 749.73 436.73 745.79 C 445.36 741.08 452.42 733.86 457.55 725.52 C 461.90 718.95 465.65 711.74 466.87 703.87 C 468.88 688.13 470.13 672.28 472.64 656.59 C 473.73 650.37 473.52 643.98 474.92 637.81 C 475.72 634.63 478.99 632.44 482.19 632.51 C 485.61 632.39 489.04 632.32 492.46 632.59 C 495.69 632.85 498.55 635.64 498.30 638.99 C 497.49 645.41 496.79 651.84 496.24 658.29 C 495.34 664.62 493.49 670.83 493.37 677.26 C 491.65 693.88 489.47 710.45 488.22 727.12 C 487.46 731.82 487.27 736.60 487.47 741.36 C 487.53 744.68 489.48 748.27 492.78 749.33 C 497.23 749.83 501.74 749.51 506.20 749.26 C 506.96 754.44 506.46 760.57 502.16 764.15 C 496.53 768.35 489.13 767.64 482.53 767.42 C 476.87 766.65 470.97 764.23 467.68 759.33 C 464.25 754.31 464.58 747.92 462.25 742.46 C 453.07 752.50 442.46 762.52 428.81 765.76 C 421.04 768.11 412.83 767.65 404.83 767.34 C 397.93 766.29 390.54 764.67 385.42 759.58 C 379.06 753.50 376.44 744.54 375.69 736.02 C 378.59 713.38 380.73 690.67 383.33 668.00 C 383.45 659.60 385.06 651.32 385.95 642.99 C 386.60 639.97 386.39 636.16 389.17 634.16 Z" />
<path fill="#000000" opacity="1.00" d=" M 551.43 632.72 C 555.86 632.28 560.34 632.39 564.79 632.59 C 566.82 632.51 568.32 634.22 569.23 635.86 C 569.86 639.20 569.58 642.66 569.22 646.02 C 567.54 656.99 566.56 668.04 565.21 679.06 C 564.42 684.32 563.30 689.54 562.69 694.83 C 562.32 704.76 559.97 714.50 559.55 724.42 C 559.63 730.70 557.68 736.92 558.71 743.20 C 559.35 745.54 560.70 747.89 562.92 749.06 C 567.46 750.45 572.53 748.45 577.03 750.00 C 578.45 753.09 577.04 756.93 576.01 760.05 C 574.55 764.74 569.39 766.46 565.05 767.31 C 557.94 767.99 550.32 767.91 544.05 764.03 C 537.86 760.80 535.05 753.42 535.42 746.74 C 535.03 736.85 536.05 727.03 537.04 717.23 C 538.66 702.46 539.73 687.62 542.12 672.94 C 543.08 663.93 543.83 654.91 545.37 645.98 C 545.30 641.06 545.74 634.35 551.43 632.72 Z" />
<path fill="#000000" opacity="1.00" d=" M 825.38 632.43 C 833.16 630.91 841.15 631.47 849.04 631.55 C 859.06 632.68 869.61 634.77 877.56 641.43 C 888.78 649.13 895.01 662.43 896.40 675.70 C 896.47 681.83 898.23 687.93 896.71 694.03 C 896.74 702.78 895.12 711.41 892.74 719.81 C 888.75 732.83 881.62 745.32 870.51 753.53 C 859.72 762.94 845.27 766.65 831.26 767.50 C 817.41 767.86 802.77 767.52 790.30 760.74 C 781.18 755.38 773.30 747.15 770.08 736.90 C 765.08 722.53 766.11 706.96 768.14 692.14 C 770.75 677.94 776.34 663.95 786.21 653.21 C 791.35 647.19 798.12 642.92 804.86 638.91 C 811.08 635.17 818.30 633.64 825.38 632.43 M 831.39 649.50 C 823.42 650.23 815.85 653.79 809.50 658.55 C 801.78 665.36 795.86 674.48 793.58 684.58 C 791.39 693.21 790.04 702.08 790.45 711.00 C 790.01 719.70 791.14 728.77 795.62 736.40 C 800.53 743.38 808.28 748.52 816.91 749.31 C 827.59 749.78 839.17 750.47 848.66 744.61 C 854.20 740.66 859.75 736.27 863.14 730.24 C 867.29 722.95 870.09 714.94 871.79 706.74 C 872.99 701.90 872.18 696.88 872.76 691.99 C 873.81 686.79 872.29 681.59 872.41 676.37 C 870.83 665.41 863.36 654.94 852.60 651.44 C 845.85 648.72 838.48 649.49 831.39 649.50 Z" />
<path fill="#000000" opacity="1.00" d=" M 660.87 637.27 C 671.53 632.66 683.48 630.82 694.95 633.01 C 702.02 634.69 709.53 635.89 715.50 640.38 C 722.86 645.92 729.55 652.96 732.69 661.80 C 735.50 670.94 737.43 680.43 736.65 690.04 C 735.68 704.07 732.74 718.13 726.93 730.99 C 723.24 738.48 718.34 745.45 711.99 750.93 C 705.10 756.70 697.61 762.10 688.89 764.70 C 678.71 768.15 667.84 767.71 657.26 767.33 C 652.01 766.56 646.89 765.00 642.00 762.97 C 637.22 761.01 633.38 757.30 628.39 755.80 C 627.11 765.37 625.89 774.95 625.17 784.58 C 623.72 792.85 622.72 801.21 622.29 809.61 C 621.89 813.34 620.77 818.20 616.58 819.27 C 612.14 819.72 607.65 819.58 603.20 819.43 C 600.78 819.56 598.88 817.23 598.55 815.03 C 597.92 809.12 599.37 803.29 599.87 797.44 C 601.73 787.93 602.09 778.24 602.99 768.63 C 604.18 761.80 604.61 754.89 605.38 748.01 C 605.82 738.62 607.67 729.36 608.46 720.01 C 608.81 710.38 611.02 700.96 612.16 691.42 C 612.85 680.57 615.70 669.94 615.63 659.03 C 616.47 652.44 616.86 645.79 616.37 639.15 C 621.51 635.65 627.84 634.51 633.93 635.64 C 638.70 640.30 638.99 647.76 638.46 654.01 C 643.10 653.07 645.68 648.82 649.13 646.03 C 652.88 642.90 656.43 639.41 660.87 637.27 M 676.21 650.32 C 665.90 651.92 656.50 658.02 649.97 666.07 C 643.84 673.10 640.53 681.93 636.85 690.35 C 634.79 694.56 635.67 699.31 634.84 703.78 C 633.40 710.76 632.59 717.86 632.30 724.98 C 632.01 729.24 630.43 733.67 631.71 737.87 C 634.15 740.81 637.58 742.72 641.00 744.33 C 646.67 746.79 652.68 748.92 658.95 748.75 C 665.51 748.69 672.27 749.36 678.63 747.35 C 686.05 745.61 692.57 741.17 697.80 735.74 C 704.69 728.21 708.28 718.36 710.29 708.50 C 711.48 694.92 713.47 680.76 709.04 667.53 C 706.47 660.03 699.69 654.98 692.64 652.03 C 687.32 650.52 681.72 650.05 676.21 650.32 Z" />
</svg>
